PathFileType	4	(X/Y/Z)	C:/Users/opensim2020/Desktop/walking_exp_matlab/subject03_walking11_straight_03.trc																																																																																																																																								
DataRate	CameraRate	NumFrames	NumMarkers	Units	OrigDataRate	OrigDataStartFrame	OrigNumFrames																																																																																																																																				
100	100	7	46	mm	100	3025	380																																																																																																																																				
Frame#	Time	LFHD			RFHD			LBHD			RBHD			C7			T10			CLAV			STRN			RBAK			LSHO			LUPA			LELB			LFRM			LWRA			LWRB			LFIN			RSHO			RUPA			RELB			RFRM			RWRA			RWRB			RFIN			LASI			RASI			LPSI			RPSI			LTHI			LKNE			LTIB			LANK			LHEE			LTOE			RTHI			RKNE			RTIB			RANK			RHEE			RTOE			*39			*40			*41			*42			*43			*44			*45		
		X1	Y1	Z1	X2	Y2	Z2	X3	Y3	Z3	X4	Y4	Z4	X5	Y5	Z5	X6	Y6	Z6	X7	Y7	Z7	X8	Y8	Z8	X9	Y9	Z9	X10	Y10	Z10	X11	Y11	Z11	X12	Y12	Z12	X13	Y13	Z13	X14	Y14	Z14	X15	Y15	Z15	X16	Y16	Z16	X17	Y17	Z17	X18	Y18	Z18	X19	Y19	Z19	X20	Y20	Z20	X21	Y21	Z21	X22	Y22	Z22	X23	Y23	Z23	X24	Y24	Z24	X25	Y25	Z25	X26	Y26	Z26	X27	Y27	Z27	X28	Y28	Z28	X29	Y29	Z29	X30	Y30	Z30	X31	Y31	Z31	X32	Y32	Z32	X33	Y33	Z33	X34	Y34	Z34	X35	Y35	Z35	X36	Y36	Z36	X37	Y37	Z37	X38	Y38	Z38	X39	Y39	Z39	X40	Y40	Z40	X41	Y41	Z41	X42	Y42	Z42	X43	Y43	Z43	X44	Y44	Z44	X45	Y45	Z45	X46	Y46	Z46
																																																																																																																																											
286	2.85	940.9137	1614.96069	1355.23352	932.62158	1620.11023	1487.64111	816.45807	1561.79346	1353.23157	813.5799	1566.84631	1483.92444	788.65454	1410.42688	1406.94934	751.45398	1096.94067	1412.9375	911.51733	1333.84558	1414.39355	952.00916	1168.37439	1409.02795	728.00397	1236.88391	1499.88037	876.3653	1372.09424	1257.99133	908.1405	1185.07947	1180.6283	952.01721	1071.12476	1168.06958	1031.81262	970.60681	1180.60742	1099.35522	879.20209	1223.89587	1084.00232	869.58008	1171.32605	1140.52051	810.69366	1188.70447	856.49121	1356.03796	1572.05042	847.29846	1131.85364	1640.49158	859.63232	1019.61469	1652.74475	875.08075	883.5191	1654.28967	908.50098	788.71973	1620.09253	872.70441	783.03406	1660.48376	897.52539	712.59698	1652.33032	918.33966	932.73633	1294.94495	926.86353	935.5293	1533.901	757.5025	955.13458	1353.45422	763.27966	957.94849	1501.69019	827.2923	636.13538	1268.93152	797.72766	460.60727	1309.10974	703.25513	285.72751	1311.63818	638.98755	84.68563	1358.25305	592.89063	56.79035	1395.41321	784.97522	34.35853	1380.91113	920.80432	639.40759	1585.82324	992.32794	473.98294	1549.4491	1008.44647	290.35712	1555.84204	1067.72034	78.43205	1516.96948	1038.33301	41.03796	1460.44006	1215.43726	66.49328	1504.12366	850.92487	1668.62366	1403.57397	NaN	NaN	NaN	NaN	NaN	NaN	NaN	NaN	NaN	NaN	NaN	NaN	NaN	NaN	NaN	NaN	NaN	NaN
287	2.86	948.61163	1614.54114	1355.59595	940.41595	1619.62537	1488.03735	824.1601	1561.40186	1353.70996	821.40204	1566.37781	1484.42395	796.65082	1410.00342	1407.66443	759.54126	1096.49756	1413.64856	919.45648	1333.3147	1414.77246	960.07849	1167.89172	1409.40259	736.14563	1236.31799	1500.68311	883.78955	1371.38159	1258.36389	914.73932	1183.99902	1181.35498	958.41791	1069.96228	1168.91663	1038.11621	969.40521	1181.4043	1105.78174	878.02307	1224.61389	1090.1217	868.25323	1172.24878	1146.73523	809.39172	1189.60437	864.80048	1355.58154	1572.50049	855.57458	1131.43469	1640.71094	867.3584	1019.10687	1652.99768	881.9458	882.81757	1654.3584	914.5816	787.68329	1619.9436	878.87482	782.31964	1660.5564	903.06378	711.59918	1652.09741	926.00543	932.14349	1295.51587	935.04901	935.12073	1534.39697	765.66852	954.33124	1354.1698	771.41278	957.57678	1502.49744	833.95984	635.8858	1269.08423	803.21674	460.25531	1308.79468	706.63336	286.4614	1311.23938	639.61377	86.22081	1357.53174	593.59808	58.68465	1394.67468	785.12384	34.25057	1380.79309	929.98669	639.25012	1585.59106	1000.60229	473.52539	1549.09094	1015.37506	289.46109	1555.2959	1073.26294	77.25208	1516.11975	1042.92981	39.9479	1460.30676	1220.69202	64.49087	1500.95081	858.66986	1668.15759	1403.97974	NaN	NaN	NaN	NaN	NaN	NaN	NaN	NaN	NaN	NaN	NaN	NaN	NaN	NaN	NaN	NaN	NaN	NaN
288	2.87	956.36298	1614.19214	1356.04504	948.28467	1619.23596	1488.52881	831.92645	1561.01587	1354.1781	829.26904	1565.93469	1484.93921	804.79791	1409.42261	1408.59253	767.79272	1095.98376	1414.53601	927.36853	1332.74988	1415.11145	968.28882	1167.46509	1409.82617	744.38495	1235.84912	1501.51733	891.33502	1370.78687	1258.74353	921.26001	1182.87891	1182.10498	964.6322	1068.71582	1169.71924	1044.15979	968.05554	1182.29431	1111.84204	876.68475	1225.40686	1095.92493	866.69623	1173.16284	1152.42712	807.79883	1190.51282	873.12811	1355.21252	1573.03625	863.73566	1130.9071	1641.10022	875.29932	1018.4848	1652.94922	889.06042	882.19781	1654.49902	920.87744	786.83551	1619.97278	885.35699	781.63953	1660.61707	909.10083	710.94226	1652.22791	933.83502	931.47101	1296.02795	943.4187	934.77045	1535.00891	773.88855	953.65753	1354.93005	779.59595	957.24933	1503.27258	840.78125	635.61169	1269.33997	809.28033	459.98306	1308.39355	710.16064	287.28235	1310.89648	640.69415	87.84024	1357.10583	593.78314	61.19455	1394.39905	785.25299	34.20986	1380.7052	939.51013	639.19	1585.427	1009.03802	473.10995	1548.59888	1022.02283	288.45346	1554.61365	1076.58411	75.27843	1514.73755	1045.15393	39.09448	1459.43115	1223.85168	61.20121	1497.94312	866.45154	1667.69507	1404.40137	NaN	NaN	NaN	NaN	NaN	NaN	NaN	NaN	NaN	NaN	NaN	NaN	NaN	NaN	NaN	NaN	NaN	NaN
289	2.88	964.10931	1613.8656	1356.50525	956.14825	1618.8623	1488.94189	839.71606	1560.66785	1354.74573	837.06696	1565.52563	1485.46692	812.80731	1408.71619	1409.36414	776.12067	1095.20813	1415.55701	935.57935	1332.41016	1415.65051	976.54205	1167.11414	1410.35339	752.71051	1235.28516	1502.36365	898.83289	1370.07861	1259.15479	927.90387	1181.8645	1182.92786	970.51477	1067.41113	1170.59753	1049.86035	966.42645	1183.03967	1117.5741	875.08356	1226.19543	1101.2356	864.96204	1174.05688	1157.67798	805.86963	1191.34473	881.46295	1354.88538	1573.61072	872.07642	1130.51318	1641.53259	883.32806	1018.0614	1653.24097	896.25043	881.48425	1654.61829	927.42328	786.03912	1620.08276	892.11224	781.13324	1660.95996	915.18481	710.20776	1652.3186	942.03485	931.02954	1296.8822	952.08221	934.53357	1535.74109	782.05371	952.9975	1355.83154	788.0473	956.9353	1504.0321	847.78595	635.39667	1269.49438	815.46295	459.63028	1307.99475	713.85272	288.19318	1310.57275	641.80853	89.52066	1356.75806	594.47424	63.69316	1393.89722	785.3667	34.11464	1380.60669	949.17487	639.27222	1585.46606	1017.41632	472.577	1547.79407	1027.92114	287.32443	1554.04956	1078.65527	73.80737	1513.57471	1045.75537	37.41349	1458.38196	1225.17456	56.67104	1494.8949	874.19318	1667.3772	1405.0498	NaN	NaN	NaN	NaN	NaN	NaN	NaN	NaN	NaN	NaN	NaN	NaN	NaN	NaN	NaN	NaN	NaN	NaN
290	2.89	971.82886	1613.55591	1356.8927	964.02704	1618.57507	1489.36877	847.4325	1560.23193	1355.31042	845.02747	1565.17261	1486.03906	820.72583	1408.3175	1410.01807	784.56909	1094.89233	1416.35852	943.71558	1332.02222	1416.17004	984.91541	1166.78174	1410.84631	761.1355	1234.72766	1503.21265	906.53058	1369.54688	1259.625	934.4137	1180.71179	1183.79004	976.43738	1066.02185	1171.51636	1055.40649	964.78076	1183.92358	1122.91846	873.18518	1226.92847	1106.23523	862.94629	1175.01465	1162.42993	803.63257	1192.11938	889.86096	1354.5791	1574.21167	880.42828	1130.18396	1642.02893	891.48621	1017.72009	1653.67932	903.87677	881.22119	1655.08484	934.20868	785.34509	1620.25098	899.03967	780.70459	1661.48499	921.52057	709.5119	1652.50305	950.29419	930.46619	1297.55347	960.91174	934.30634	1536.4613	790.53253	952.59515	1356.80432	796.66461	956.73016	1504.99805	854.91248	635.2016	1269.80103	821.77313	459.66299	1307.75	717.75781	289.18835	1310.2251	642.76923	91.55628	1356.10266	595.16705	66.5015	1393.50452	785.49286	34.04057	1380.53528	958.92633	639.27521	1585.21021	1025.43286	472.0332	1547.1875	1033.14941	286.03445	1553.26477	1079.97644	72.15729	1512.23523	1045.87561	36.25029	1457.28101	1225.72705	50.62118	1491.76843	881.92938	1666.94275	1405.36902	NaN	NaN	NaN	NaN	NaN	NaN	NaN	NaN	NaN	NaN	NaN	NaN	NaN	NaN	NaN	NaN	NaN	NaN
291	2.9	979.59247	1613.44373	1357.2478	971.96655	1618.51343	1489.8031	855.19287	1559.8844	1355.87122	853.01477	1564.89063	1486.59778	828.69147	1407.95276	1410.73743	793.27917	1094.34192	1417.3479	951.90594	1331.77258	1416.70557	993.32782	1166.68323	1411.41931	769.64484	1234.15173	1504.00586	914.16779	1368.922	1260.09204	940.95874	1179.62305	1184.73523	982.28784	1064.67261	1172.52649	1060.69519	962.88177	1184.74231	1127.95459	871.07751	1227.64868	1110.81091	860.73547	1175.8374	1166.70874	801.08063	1192.87976	898.25293	1354.33899	1574.91504	888.87598	1129.89197	1642.73523	899.8194	1017.29193	1654.09192	911.58911	880.83203	1655.53638	941.27777	784.7406	1620.60974	906.34515	780.29321	1661.96765	928.16144	708.8623	1652.89917	958.62299	929.93066	1298.11182	969.87073	934.19666	1537.11633	799.06183	952.16235	1357.86853	805.40533	956.61432	1506.14966	862.24957	635.04944	1270.0249	828.70996	459.48712	1307.36206	721.86548	290.27924	1309.93848	643.97247	93.77787	1355.5769	596.13104	69.57098	1392.90125	785.6275	33.93995	1380.45056	968.27509	639.64441	1585.00659	1032.75928	471.71259	1546.58826	1038.03735	285.20557	1552.30591	1083.76624	72.18148	1511.39465	1047.51782	37.31509	1457.52246	1228.61389	46.329	1488.82617	889.7431	1666.71753	1405.89368	NaN	NaN	NaN	NaN	NaN	NaN	NaN	NaN	NaN	NaN	NaN	NaN	NaN	NaN	NaN	NaN	NaN	NaN
292	2.91	987.38446	1613.69312	1357.59937	979.97327	1618.85571	1490.23962	863.15924	1559.82654	1356.50635	861.11804	1564.88867	1487.26636	836.56714	1407.9425	1411.58301	801.88092	1093.96716	1418.6803	959.93127	1331.7865	1417.20007	1001.54834	1166.94031	1411.98425	777.9726	1233.828	1504.73096	921.91968	1368.65381	1260.57703	947.57397	1178.64966	1185.70422	987.97095	1063.28857	1173.55334	1065.78638	960.94427	1185.67944	1132.58472	868.68915	1228.34058	1114.92847	858.3197	1176.70117	1170.49341	798.28528	1193.52161	906.65497	1354.27588	1575.68762	897.39941	1129.72083	1643.3866	908.25983	1017.04987	1654.72986	919.396	880.3255	1655.99231	948.56311	784.21399	1621.07336	913.82159	780.02411	1662.60583	935.06006	708.41693	1653.41687	967.133	929.62518	1298.73499	978.91278	934.36969	1537.78394	807.83453	952.14374	1359.16284	814.48865	956.74738	1507.45728	869.80731	634.96906	1270.36255	835.6347	459.36591	1307.33704	726.41779	291.59109	1309.81213	645.54968	96.26205	1355.02441	597.22552	73.08952	1392.32813	785.87537	33.86385	1380.39429	977.53589	640.85486	1584.50977	1039.10657	472.03024	1545.99146	1043.65479	285.44522	1551.65723	1088.17578	72.88618	1510.76367	1049.63757	38.69665	1457.63989	1232.19763	44.13148	1488.5719	897.43665	1667.29651	1407.67273	NaN	NaN	NaN	NaN	NaN	NaN	NaN	NaN	NaN	NaN	NaN	NaN	NaN	NaN	NaN	NaN	NaN	NaN
